<svg width="512" height="512" viewBox="0 0 512 512" fill="none" xmlns="http://www.w3.org/2000/svg">
<g clip-path="url(#clip0_59_22)">
<path d="M416.627 152.999H231.906L195.162 109.328C194.552 108.595 193.783 108.011 192.913 107.619C192.044 107.228 191.096 107.04 190.143 107.069H41.1106C18.3567 107.235 0 125.727 0 148.481V417.08C0.0276078 439.912 18.5299 458.414 41.3616 458.442H416.627C439.459 458.414 457.961 439.912 457.989 417.08V194.36C457.961 171.529 439.459 153.026 416.627 152.999Z" fill="#787878"/>
<path d="M470.89 99.4898H286.118L249.374 55.8192C248.764 55.086 247.995 54.5015 247.125 54.1101C246.256 53.7187 245.308 53.5307 244.355 53.5604H95.3727C74.727 53.5943 57.2689 68.8464 54.4629 89.3H190.344C193.863 89.2916 197.342 90.0559 200.534 91.5391C203.725 93.0222 206.553 95.188 208.816 97.8836L240.188 135.179H416.628C449.261 135.234 475.703 161.677 475.759 194.31V404.531C496.449 401.95 511.984 384.373 512 363.521V140.801C511.946 118.086 493.603 99.6555 470.89 99.4898Z" fill="#787878"/>
</g>
<defs>
<clipPath id="clip0_59_22">
<rect width="512" height="512" fill="white"/>
</clipPath>
</defs>
</svg>
