<svg width="512" height="512" viewBox="0 0 512 512" fill="none" xmlns="http://www.w3.org/2000/svg">
<path d="M256 240C317.856 240 368 189.856 368 128C368 66.1441 317.856 16 256 16C194.144 16 144 66.1441 144 128C144 189.856 194.144 240 256 240Z" fill="#285DC3"/>
<path d="M335.52 272H176.48C142.418 272.042 109.763 285.592 85.6777 309.678C61.5922 333.763 48.0423 366.418 48 400.48V480C48 484.243 49.6857 488.313 52.6863 491.314C55.6869 494.314 59.7565 496 64 496H448C452.243 496 456.313 494.314 459.314 491.314C462.314 488.313 464 484.243 464 480V400.48C463.958 366.418 450.408 333.763 426.322 309.678C402.237 285.592 369.582 272.042 335.52 272Z" fill="#285DC3"/>
</svg>
